<svg width="41" height="33" viewBox="0 0 41 33" fill="none" xmlns="http://www.w3.org/2000/svg">
<path d="M36.2229 0.97998H4.67603C2.50718 0.97998 0.75239 2.75761 0.75239 4.93027L0.732673 28.632C0.732673 30.8047 2.50718 32.5823 4.67603 32.5823H36.2229C38.3917 32.5823 40.1662 30.8047 40.1662 28.632V4.93027C40.1662 2.75761 38.3917 0.97998 36.2229 0.97998ZM35.4342 9.37436L21.4944 18.1045C20.8635 18.4995 20.0354 18.4995 19.4045 18.1045L5.4647 9.37436C5.26699 9.26318 5.09386 9.11297 4.95579 8.93282C4.81771 8.75267 4.71756 8.54633 4.66139 8.32628C4.60522 8.10624 4.59421 7.87707 4.62902 7.65263C4.66382 7.4282 4.74373 7.21318 4.86389 7.02057C4.98406 6.82797 5.14198 6.6618 5.32811 6.53211C5.51424 6.40242 5.72471 6.31191 5.94677 6.26606C6.16882 6.22022 6.39786 6.21998 6.62001 6.26537C6.84217 6.31076 7.05281 6.40084 7.23921 6.53014L20.4495 14.806L33.6597 6.53014C33.8461 6.40084 34.0567 6.31076 34.2789 6.26537C34.501 6.21998 34.7301 6.22022 34.9521 6.26606C35.1742 6.31191 35.3847 6.40242 35.5708 6.53211C35.7569 6.6618 35.9148 6.82797 36.035 7.02057C36.1552 7.21318 36.2351 7.4282 36.2699 7.65263C36.3047 7.87707 36.2937 8.10624 36.2375 8.32628C36.1813 8.54633 36.0812 8.75267 35.9431 8.93282C35.805 9.11297 35.6319 9.26318 35.4342 9.37436Z" fill="#55549D"/>
</svg>
