<svg width="36" height="36" viewBox="0 0 36 36" fill="none" xmlns="http://www.w3.org/2000/svg">
<path d="M17.9986 8.93356C13.1002 8.93356 9.14912 12.8916 9.14912 17.7986C9.14912 22.7056 13.1002 26.6636 17.9986 26.6636C22.897 26.6636 26.848 22.7056 26.848 17.7986C26.848 12.8916 22.897 8.93356 17.9986 8.93356ZM17.9986 23.562C14.8331 23.562 12.2453 20.9773 12.2453 17.7986C12.2453 14.6198 14.8254 12.0352 17.9986 12.0352C21.1717 12.0352 23.7519 14.6198 23.7519 17.7986C23.7519 20.9773 21.164 23.562 17.9986 23.562ZM29.2741 8.57094C29.2741 9.72053 28.3499 10.6387 27.21 10.6387C26.0624 10.6387 25.1459 9.71282 25.1459 8.57094C25.1459 7.42905 26.0701 6.5032 27.21 6.5032C28.3499 6.5032 29.2741 7.42905 29.2741 8.57094ZM35.1352 10.6695C35.0043 7.8997 34.3727 5.44619 32.3471 3.42475C30.3293 1.40331 27.8801 0.770649 25.1151 0.631772C22.2654 0.469748 13.724 0.469748 10.8743 0.631772C8.11707 0.762934 5.66788 1.3956 3.64229 3.41704C1.6167 5.43848 0.992848 7.89198 0.854215 10.6618C0.692475 13.5165 0.692475 22.0729 0.854215 24.9276C0.985146 27.6975 1.6167 30.151 3.64229 32.1724C5.66788 34.1938 8.10937 34.8265 10.8743 34.9654C13.724 35.1274 22.2654 35.1274 25.1151 34.9654C27.8801 34.8342 30.3293 34.2016 32.3471 32.1724C34.365 30.151 34.9966 27.6975 35.1352 24.9276C35.297 22.0729 35.297 13.5242 35.1352 10.6695ZM31.4537 27.9906C30.853 29.5029 29.69 30.6679 28.1727 31.2774C25.9007 32.1801 20.5094 31.9718 17.9986 31.9718C15.4878 31.9718 10.0888 32.1724 7.8244 31.2774C6.31484 30.6756 5.15186 29.5106 4.54341 27.9906C3.64229 25.7146 3.85024 20.3138 3.85024 17.7986C3.85024 15.2834 3.64999 9.87484 4.54341 7.60651C5.14415 6.09429 6.30714 4.92926 7.8244 4.31974C10.0965 3.41704 15.4878 3.62535 17.9986 3.62535C20.5094 3.62535 25.9084 3.42475 28.1727 4.31974C29.6823 4.92154 30.8453 6.08657 31.4537 7.60651C32.3548 9.88256 32.1469 15.2834 32.1469 17.7986C32.1469 20.3138 32.3548 25.7223 31.4537 27.9906Z" fill="#55549D"/>
</svg>
