<svg width="36" height="37" viewBox="0 0 36 37" fill="none" xmlns="http://www.w3.org/2000/svg">
<path d="M35.2122 28.4756L27.1973 21.1755C26.8185 20.8306 26.3206 20.6466 25.8089 20.6624C25.2971 20.6783 24.8116 20.8927 24.4547 21.2604L19.7365 26.1213C18.6008 25.904 16.3176 25.191 13.9674 22.8425C11.6171 20.4862 10.9054 18.193 10.6944 17.0633L15.5427 12.3348C15.9103 11.9775 16.1246 11.491 16.1405 10.9782C16.1563 10.4655 15.9723 9.96663 15.6275 9.58732L8.34217 1.56033C7.99721 1.17983 7.51777 0.949026 7.00567 0.916941C6.49358 0.884856 5.98917 1.05401 5.59957 1.38849L1.32103 5.06424C0.980145 5.40695 0.776684 5.86308 0.74924 6.34611C0.719664 6.83989 0.155765 18.5367 9.20971 27.6105C17.1082 35.521 27.0021 36.0997 29.727 36.0997C30.1253 36.0997 30.3698 36.0879 30.4348 36.0839C30.9169 36.0569 31.372 35.8521 31.7125 35.5091L35.3798 31.2211C35.715 30.8321 35.8851 30.3272 35.8538 29.8142C35.8225 29.3012 35.5922 28.8209 35.2122 28.4756Z" fill="#55549D"/>
</svg>
